<?xml version="1.0" encoding="UTF-8" standalone="no"?>

<svg
   xmlns:svg="http://www.w3.org/2000/svg"
   xmlns="http://www.w3.org/2000/svg"
   version="1.1"
   width="600"
   height="600"
   id="svg2893">
  <defs
     id="defs2895" />
  <g
     transform="translate(-300.92735,109.87201)"
     id="layer1">
    <g
       transform="matrix(52.689537,0,0,52.689537,-15532.381,-25334.501)"
       id="g2922">
      <path
         d="m 302.9518,480.71577 0,-0.0125 0,-0.0125 0.0125,0 0.0125,-0.0125 0,0 0.0125,-0.0125 0.0375,-0.0125 0.0375,-0.0125 0.0375,-0.0125 0.0625,-0.0125 0.05,-0.0125 0.075,-0.0125 0.0625,-0.0125 0.0875,0 0.075,-0.0125 0.0875,-0.0125 0.1,-0.0125 0.0875,0 0.1,-0.0125 0.1125,-0.0125 0.1,0 0.11249,-0.0125 0.1125,-0.0125 0.225,-0.0125 0.225,-0.0125 0.2375,-0.025 0.2375,-0.025 0.225,-0.0125 0.1125,-0.0125 0.1,-0.0125 c -0.0125,-0.68749 -0.0875,-1.16251 -0.25,-1.38751 -0.0375,-0.125 0,-0.1875 0.1,-0.225 0.0625,-0.025 0.0875,-0.025 0.1375,-0.025 0.075,0 0.14999,0.0125 0.225,0.0625 0.225,0.0875 0.43749,0.2 0.61249,0.35 0.1,0.1 0.125,0.19999 0.0625,0.2875 -0.0875,0.14999 -0.175,0.42499 -0.25,0.82497 0.025,-0.0125 0.05,-0.0125 0.075,-0.0125 l 1.1124,-0.22499 c 0.25,-0.0625 0.4875,-0.10001 0.6875,-0.10001 0.525,0 0.88776,0.2625 0.86256,0.45 -0.075,0.1125 -0.15,0.1625 -0.25,0.13749 -1.1628,0.0875 -2.02464,0.16251 -2.53728,0.25 -0.0125,0.025 0,0.0625 0,0.0875 1.1376,0.88748 2.00016,1.45001 2.52504,1.7 l 2.49984,0.86248 c 0.1,0.0375 0.16249,0.075 0.16249,0.125 0,0.05 -0.94968,0.325 -2.10024,0.325 -0.45,-0.0875 -1.47528,-0.9625 -3.1248,-2.62498 -0.0125,0.1875 -0.0125,0.5 -0.0125,0.93751 -0.0125,0.675 -0.0625,1.04998 -0.15001,1.13753 -0.1125,0.0625 -0.21249,0.025 -0.29999,-0.1 -0.125,-0.31249 -0.175,-0.5125 -0.175,-0.6125 0.05,-0.2375 0.075,-0.62499 0.0875,-1.17496 -0.05,0.0625 -0.225,0.26249 -0.52499,0.58749 -0.1,0.0875 -0.1875,0.175 -0.2875,0.275 -1.46232,1.46246 -3.04992,2.07497 -3.27528,1.91246 -0.0625,-0.025 -0.05,-0.0625 0.0375,-0.13749 1.75032,-1.03752 2.94984,-2.0875 3.6,-3.13748 -0.45,0.0625 -0.85032,0.10001 -1.22472,0.175 -0.0875,0.0125 -0.175,0.025 -0.25,0.025 -0.51249,0 -0.81216,-0.34999 -0.81216,-0.4125 z"
         id="path37"
         style="font-style:normal;font-variant:normal;font-weight:normal;font-stretch:normal;letter-spacing:normal;word-spacing:normal;text-anchor:start;fill:currentColor;fill-opacity:1;stroke:currentColor;stroke-width:0;stroke-linecap:butt;stroke-linejoin:miter;stroke-miterlimit:10.43299961;stroke-opacity:1;stroke-dasharray:none;stroke-dashoffset:0" />
      <path
         d="m 306.58928,487.89072 0,0.1 0,0.0875 0,0.0875 -0.0125,0.0875 0,0.075 0,0.0875 -0.0125,0.075 0,0.075 -0.0125,0.075 -0.0125,0.0625 0,0.075 -0.0125,0.0625 -0.0125,0.0625 -0.0125,0.0625 -0.0125,0.0625 -0.0125,0.05 -0.0125,0.0625 -0.0125,0.05 -0.0125,0.05 -0.0125,0.05 -0.0125,0.05 -0.0125,0.05 -0.025,0.0375 -0.0125,0.05 -0.025,0.075 -0.0375,0.075 -0.0375,0.0625 -0.025,0.0625 -0.0375,0.0625 -0.0375,0.05 -0.0375,0.0375 -0.025,0.0375 -0.0375,0.0375 -0.025,0.0375 -0.0375,0.025 -0.025,0.0125 -0.025,0.025 -0.025,0.0125 -0.025,0.0125 -0.025,0.0125 -0.0125,0 -0.0125,0.0125 -0.0125,0 -0.0125,0 c -0.05,0 -0.0875,-0.025 -0.1375,-0.075 -0.33749,-0.5625 -1.35,-1.20002 -1.39968,-1.35 0,-0.0125 0.05,-0.025 0.1125,-0.025 0.3375,0 0.67499,0.1375 1.12464,0.1375 0.1125,0 0.175,-0.0125 0.2,-0.0375 0.0125,-0.0375 0.025,-0.0625 0.05,-0.0875 0.1125,-0.35 0.1625,-0.75002 0.1625,-1.18749 0,-0.3625 -0.0375,-0.76248 -0.1,-1.17497 l -0.0875,0 c -2.35008,0.16249 -3.70008,0.61249 -4.01256,0.61249 -0.4375,0 -0.81216,-0.325 -0.81216,-0.48749 0,-0.0625 0.05,-0.0875 0.1625,-0.1 1.66248,-0.175 3.22488,-0.325 4.66272,-0.45 -0.175,-0.425 -0.525,-0.425 -0.5625,-0.75003 0,-0.16249 0.025,-0.23749 0.1125,-0.21249 0.125,0.025 0.3625,0.1375 0.6875,0.3625 l 0.82512,-1.10002 c 0.0375,-0.1125 0.025,-0.1625 -0.0625,-0.225 -0.025,-0.0125 -0.05,-0.0125 -0.0875,-0.0125 -0.53749,0 -2.0124,0.6375 -2.26224,0.6375 -0.1125,0 -0.2125,-0.0125 -0.3125,-0.0875 -0.1375,-0.0875 -0.23749,-0.175 -0.3,-0.2875 -0.1125,-0.2625 0.2125,-0.175 0.575,-0.175 0.79992,0 2.39976,-0.63749 2.62512,-0.63749 0.2625,0 0.97488,0.48749 0.98784,0.67499 0.05,0.1125 0,0.2 -0.1375,0.25 -0.3375,0.0875 -0.9,0.43749 -1.67472,1.07503 l 0.0125,0 c 0.13749,0.1 0.21249,0.23748 0.24999,0.41248 3.6,-0.5 3.51216,-0.53749 3.6,-0.53749 0.53749,0 1.24992,0.52499 1.24992,0.775 0,0.15 -0.15,0.1875 -0.3625,0.1875 -0.25,-0.0125 -1.96272,-0.0375 -2.4372,-0.0375 -0.72504,0 -1.38744,0.0125 -1.97496,0.0625 0,0.1625 0.0875,0.81252 0.0875,1.61251 z"
         id="path39"
         style="font-style:normal;font-variant:normal;font-weight:normal;font-stretch:normal;letter-spacing:normal;word-spacing:normal;text-anchor:start;fill:currentColor;fill-opacity:1;stroke:currentColor;stroke-width:0;stroke-linecap:butt;stroke-linejoin:miter;stroke-miterlimit:10.43299961;stroke-opacity:1;stroke-dasharray:none;stroke-dashoffset:0" />
    </g>
  </g>
</svg>
